<svg width="24" height="24" viewBox="0 0 24 24" fill="none" xmlns="http://www.w3.org/2000/svg">
<path d="M1.77174 6.33722C-0.316341 4.36659 1.07828 0.856934 3.94943 0.856934H8.92836H15.5512C20.1138 0.856934 23.7179 4.72836 23.3921 9.27927V9.27927C23.2907 10.6948 22.808 12.0565 21.9953 13.2199L19.312 17.0606C18.7644 17.8445 18.7517 18.8836 19.28 19.6806V19.6806C20.5901 21.6569 18.4531 24.0981 16.3209 23.0611L12.0648 20.9912C9.61077 19.7977 9.30962 16.4212 11.5137 14.8123L13.7462 13.1825C15.1497 12.1579 15.6827 10.3138 15.0421 8.6985V8.6985C14.4 7.07914 12.7417 6.10114 11.0138 6.3227L4.35297 7.1768C3.41024 7.29769 2.46297 6.98957 1.77174 6.33722V6.33722Z" fill="#A3EBFF"/>
</svg>
